<svg width="16" height="16" viewBox="0 0 32 32" fill="none" xmlns="http://www.w3.org/2000/svg">
        <path fill-rule="evenodd" clip-rule="evenodd" d="M16.0002 1.23096C7.81557 1.23096 1.23096 7.81557 1.23096 16.0002C1.23096 24.1848 7.81557 30.7694 16.0002 30.7694C24.1848 30.7694 30.7694 24.1848 30.7694 16.0002C30.7694 7.81557 24.1848 1.23096 16.0002 1.23096ZM24.2467 12.3085L14.8313 21.8469C14.4621 22.2162 13.8467 22.2162 13.4774 21.8469L8.3082 16.6162C7.93897 16.2469 7.93897 15.6316 8.3082 15.2623L9.66205 13.9085C10.0313 13.5393 10.6467 13.5393 11.0159 13.9085L13.7236 16.6777C13.9697 16.9239 14.4005 16.9239 14.6467 16.6777L21.539 9.53925C21.9082 9.17002 22.5236 9.17002 22.8928 9.53925L24.2467 10.8931C24.6774 11.2623 24.6774 11.8777 24.2467 12.3085Z" fill="#ffffff"/>
</svg>