<svg width="52" height="52" viewBox="0 0 100 100" fill="none" xmlns="http://www.w3.org/2000/svg" style="margin: 0; padding: 0; display: block;">
    <rect x="22" y="23" width="48" height="48" rx="4" fill="#B60554"/>
    <path d="M48.8801 41.24V34.04C48.8801 33.6581 48.7284 33.2918 48.4583 33.0217C48.1883 32.7517 47.822 32.6 47.4401 32.6H45.5201C44.7041 32.6 44.0801 33.224 44.0801 34.04C44.0801 34.856 44.7041 35.48 45.5201 35.48H46.0001V41.24C46.0001 44.408 43.4081 47 40.2401 47C37.0721 47 34.4801 44.408 34.4801 41.24V35.48H34.9601C35.7761 35.48 36.4001 34.856 36.4001 34.04C36.4001 33.224 35.7761 32.6 34.9601 32.6H33.0401C32.6582 32.6 32.2919 32.7517 32.0219 33.0217C31.7518 33.2918 31.6001 33.6581 31.6001 34.04V41.24C31.6001 45.992 35.4881 49.88 40.2401 49.88C44.9921 49.88 48.8801 45.992 48.8801 41.24Z" fill="white"/>
    <path d="M60.4001 47C60.4001 44.6 58.4801 42.68 56.0801 42.68C53.6801 42.68 51.7601 44.6 51.7601 47C51.7601 48.872 52.9601 50.456 54.6401 51.08V52.136C54.6401 55.64 51.7601 58.52 48.2561 58.52H48.1121C45.0881 58.52 42.5441 56.36 41.8721 53.528C41.8272 53.3079 41.7066 53.1105 41.5312 52.9701C41.3558 52.8298 41.1367 52.7554 40.9121 52.76H39.9521C39.8081 52.7571 39.6653 52.7866 39.5343 52.8463C39.4033 52.9061 39.2874 52.9946 39.1952 53.1052C39.103 53.2158 39.0369 53.3458 39.0017 53.4854C38.9665 53.6251 38.9633 53.7709 38.9921 53.912C39.4034 56.0175 40.5326 57.915 42.1871 59.2806C43.8416 60.6462 45.9188 61.3953 48.0641 61.4H48.2081C53.3441 61.4 57.5201 57.224 57.5201 52.136V51.08C59.2001 50.456 60.4001 48.872 60.4001 47ZM56.0801 48.44C55.2641 48.44 54.6401 47.816 54.6401 47C54.6401 46.184 55.2641 45.56 56.0801 45.56C56.8961 45.56 57.5201 46.184 57.5201 47C57.5201 47.816 56.8961 48.44 56.0801 48.44Z" fill="white"/>
</svg>
